<?xml version="1.0" encoding="UTF-8"?>
<svg version="1.1" xmlns="http://www.w3.org/2000/svg" width="246" height="246">
<path d="M0 0 C81.18 0 162.36 0 246 0 C246 81.18 246 162.36 246 246 C164.82 246 83.64 246 0 246 C0 164.82 0 83.64 0 0 Z " fill="#6944FA" transform="translate(0,0)"/>
<path d="M0 0 C81.18 0 162.36 0 246 0 C246 81.18 246 162.36 246 246 C164.82 246 83.64 246 0 246 C0 164.82 0 83.64 0 0 Z M37.70703125 42.55859375 C32.58613212 48.83612584 28.80755872 53.76290103 28 62 C27.34 62 26.68 62 26 62 C25.68357535 63.499177 25.37211151 64.99940113 25.0625 66.5 C24.88847656 67.3353125 24.71445312 68.170625 24.53515625 69.03125 C23.32596224 75.73918758 22.85087038 82.21154705 22.85473633 89.01123047 C22.84969841 90.30562042 22.84969841 90.30562042 22.84455872 91.62615967 C22.83512094 94.45651724 22.83310933 97.28681521 22.83203125 100.1171875 C22.82881404 102.09961979 22.82544962 104.08205184 22.82194519 106.06448364 C22.81597211 110.21177724 22.81410345 114.35905006 22.81469727 118.50634766 C22.81479886 123.80080541 22.80114083 129.095129 22.78392506 134.38955498 C22.77276675 138.48182784 22.77077922 142.57406862 22.77130699 146.66635513 C22.77013288 148.61743762 22.76574328 150.5685211 22.75797462 152.51958847 C22.71466637 164.51779465 23.13428643 175.18495443 27.125 186.625 C27.47820313 187.64851562 27.83140625 188.67203125 28.1953125 189.7265625 C28.46085937 190.47679687 28.72640625 191.22703125 29 192 C29.66 192 30.32 192 31 192 C31.25652344 192.72445312 31.51304688 193.44890625 31.77734375 194.1953125 C35.35203161 202.3953952 42.44071691 209.35359855 50 214 C52.15891859 214.69768469 52.15891859 214.69768469 54 215 C54 215.66 54 216.32 54 217 C67.82240321 222.67809354 80.03947359 223.87026824 94.88671875 223.7265625 C97.04466246 223.72552163 99.20260807 223.72657117 101.36054993 223.72958374 C105.85109309 223.72940576 110.34090722 223.70884634 114.83129883 223.67236328 C120.54672689 223.62691053 126.26109759 223.62593132 131.97665691 223.63939857 C136.42176993 223.64612383 140.86664789 223.63273418 145.31171608 223.61314011 C147.41774067 223.60552051 149.52379157 223.60310402 151.6298275 223.6063118 C173.66641269 223.61192833 190.83480374 220.13751613 207 204 C207.97453125 203.04287109 207.97453125 203.04287109 208.96875 202.06640625 C222.8739605 187.39884869 223.47627688 169.58273297 223.46875 150.578125 C223.47586378 148.3877544 223.48356452 146.19738563 223.49182129 144.00701904 C223.50522376 139.4278037 223.50685432 134.84876064 223.50097656 130.26953125 C223.49509003 124.43841521 223.52564956 118.60813449 223.56609344 112.77717972 C223.59210736 108.25575405 223.59483538 103.73452575 223.59120178 99.21303558 C223.59288078 97.06511083 223.60240387 94.91717573 223.62034607 92.76932526 C223.7750958 71.95344066 219.97472343 55.95355873 205.3828125 40.2734375 C199.48585387 34.49252784 199.48585387 34.49252784 192 32 C192 31.34 192 30.68 192 30 C189.41767086 29.01811439 186.83421317 28.03940411 184.25 27.0625 C183.15558594 26.64581055 183.15558594 26.64581055 182.0390625 26.22070312 C181.33007812 25.95322266 180.62109375 25.68574219 179.890625 25.41015625 C179.24125977 25.16402588 178.59189453 24.91789551 177.92285156 24.66430664 C174.52773424 23.49136172 171.47649929 22.87477042 167.87927246 22.85955811 C166.66015671 22.85099289 166.66015671 22.85099289 165.41641235 22.84225464 C164.53327362 22.84113678 163.65013489 22.84001892 162.74023438 22.83886719 C161.80307587 22.83390228 160.86591736 22.82893738 159.90036011 22.82382202 C156.79814925 22.80921272 153.69598962 22.80239847 150.59375 22.796875 C148.43103027 22.79112011 146.26831054 22.78536242 144.10559082 22.77960205 C139.5661597 22.76909389 135.02674626 22.76325081 130.48730469 22.75976562 C124.69515537 22.75429809 118.90324316 22.7303065 113.11116791 22.70179367 C108.63964172 22.68308254 104.16817151 22.67795707 99.6966095 22.67642975 C97.56295992 22.67341901 95.42931095 22.66544439 93.29570007 22.65224457 C71.75762194 22.52856862 52.86409354 25.64568779 37.70703125 42.55859375 Z " fill="#232154" transform="translate(0,0)"/>
<path d="M0 0 C81.18 0 162.36 0 246 0 C246 81.18 246 162.36 246 246 C164.82 246 83.64 246 0 246 C0 164.82 0 83.64 0 0 Z M49 5 C47.42841122 5.42151885 45.84370918 5.7968834 44.25 6.125 C43.05117187 6.37636719 43.05117187 6.37636719 41.828125 6.6328125 C41.22484375 6.75398437 40.6215625 6.87515625 40 7 C40 7.66 40 8.32 40 9 C38.1746875 9.4021875 38.1746875 9.4021875 36.3125 9.8125 C32.78578094 10.6957458 29.94477704 11.79141722 27 14 C27 14.66 27 15.32 27 16 C26.46375 16.226875 25.9275 16.45375 25.375 16.6875 C19.11862655 20.14496954 15.17201715 24.64193022 12 31 C12 31.66 12 32.32 12 33 C11.34 33 10.68 33 10 33 C9.19459738 35.07806172 8.40655148 37.16285095 7.625 39.25 C7.18414063 40.41015625 6.74328125 41.5703125 6.2890625 42.765625 C3.08791581 52.43345247 2.70433887 62.37562738 2.7253418 72.47265625 C2.72023087 73.76211151 2.71511993 75.05156677 2.70985413 76.38009644 C2.69659738 79.88010946 2.69587017 83.38001365 2.69841743 86.88004684 C2.69949585 89.81718449 2.69458194 92.75430087 2.689812 95.69143391 C2.67876384 102.6266626 2.67825344 109.5618371 2.68432617 116.49707031 C2.69036813 123.62034584 2.67803858 130.74342396 2.6567561 137.86666584 C2.63907378 144.0139786 2.63314897 150.16122888 2.63639385 156.30856609 C2.63819563 159.96635511 2.63568177 163.62400313 2.62167931 167.2817688 C2.6066334 171.36375531 2.61612872 175.4453458 2.62768555 179.52734375 C2.62004181 180.71834686 2.61239807 181.90934998 2.60452271 183.13644409 C2.71741647 201.26962974 9.485601 215.50372927 22.265625 228.26171875 C33.25376387 238.37155401 46.83588435 243.1082303 61.8240509 243.13371277 C63.53340065 243.14011024 63.53340065 243.14011024 65.27728271 243.14663696 C66.51327209 243.14618378 67.74926147 243.14573059 69.02270508 243.14526367 C70.99206276 243.15030159 70.99206276 243.15030159 73.00120544 243.15544128 C76.59225369 243.16425089 80.18327809 243.16661813 83.7743361 243.16725707 C86.02141646 243.16796935 88.26849082 243.17010704 90.51556969 243.17275429 C98.36495725 243.18199795 106.21432787 243.18609044 114.0637207 243.18530273 C121.36411222 243.18470234 128.66442976 243.19524912 135.96480256 243.2110464 C142.24611977 243.22415098 148.52741289 243.2294854 154.80874366 243.22884732 C158.55424745 243.22859318 162.29968546 243.23139818 166.04517555 243.24202538 C170.22653837 243.25356604 174.4077369 243.24894171 178.58911133 243.24291992 C179.81902802 243.24853943 181.0489447 243.25415894 182.31613159 243.25994873 C192.22122763 243.22375895 200.24966186 241.84985638 209.0625 237.3125 C210.10664063 236.77967407 210.10664063 236.77967407 211.171875 236.23608398 C216.46804279 233.44950977 220.88264356 230.37818445 225 226 C225.67289063 225.31164062 226.34578125 224.62328125 227.0390625 223.9140625 C239.28452745 210.84306059 243.64124253 196.60833606 243.50170898 178.82543945 C243.50550522 177.47177573 243.51101589 176.11811593 243.51808167 174.76446533 C243.53188 171.1343364 243.52098033 167.50468971 243.50437045 163.87458825 C243.49037472 160.05076367 243.49699604 156.226963 243.50050354 152.40312195 C243.50319334 145.98896641 243.48983341 139.57499934 243.46655273 133.16088867 C243.4399166 125.77169295 243.43821132 118.38281131 243.4499411 110.99358398 C243.46076012 103.84628536 243.45450178 96.69909905 243.44038582 89.55180931 C243.43466508 86.52696223 243.43467748 83.5021984 243.43945122 80.47735023 C243.44426186 76.91072485 243.43395262 73.34443879 243.41249657 69.77787781 C243.40437907 67.86334345 243.41073358 65.94876438 243.41769409 64.03422546 C243.2773625 47.53588236 237.43048545 33.01822318 226 21 C222.81095598 18.11056362 219.48790199 15.51715904 216 13 C215.38898438 12.52820312 214.77796875 12.05640625 214.1484375 11.5703125 C198.94230665 0.78534745 180.13525588 2.29371447 162.44127941 2.42716718 C158.60086508 2.45126334 154.76045936 2.44805415 150.91998291 2.44847107 C144.48834977 2.45307213 138.05701637 2.47654736 131.62548828 2.51293945 C124.19525485 2.55487109 116.76528942 2.57226806 109.33494449 2.5755592 C101.39554093 2.57915691 93.4562331 2.59800335 85.51686954 2.62267947 C83.23661574 2.62890014 80.95636921 2.632541 78.67610931 2.63571358 C75.10049503 2.6416128 71.52507171 2.65792169 67.94953728 2.68231773 C66.01340676 2.69330035 64.0772289 2.69459651 62.1410675 2.69561768 C60.98912399 2.7055928 59.83718048 2.71556793 58.65032959 2.72584534 C57.1494813 2.7328211 57.1494813 2.7328211 55.61831284 2.73993778 C52.91401029 3.00854087 51.33659859 3.66858629 49 5 Z " fill="#11192A" transform="translate(0,0)"/>
<path d="M0 0 C0.79470703 -0.01160156 1.58941406 -0.02320312 2.40820312 -0.03515625 C9.89998865 0.00141878 16.69158605 1.55246354 22.5625 6.375 C24.21047236 7.08662443 25.87415408 7.76531953 27.5625 8.375 C27.5625 9.035 27.5625 9.695 27.5625 10.375 C28.5525 10.705 29.5425 11.035 30.5625 11.375 C32.16796875 12.8984375 32.16796875 12.8984375 33.75 14.75 C34.27980469 15.35585937 34.80960937 15.96171875 35.35546875 16.5859375 C36.5625 18.375 36.5625 18.375 36.5625 21.375 C37.2225 21.375 37.8825 21.375 38.5625 21.375 C42.79390856 28.81018932 44.05625864 35.17731669 44.0625 43.625 C44.06830078 44.46385742 44.07410156 45.30271484 44.08007812 46.16699219 C43.88870495 55.86195725 40.21471244 62.68132508 34.5625 70.375 C34.11003906 71.00664062 33.65757812 71.63828125 33.19140625 72.2890625 C27.00232365 80.24895911 17.12323814 85.37683207 7.15844727 86.69238281 C4.68021554 86.84688293 2.23289232 86.89353444 -0.25 86.875 C-1.12293701 86.87072998 -1.99587402 86.86645996 -2.89526367 86.86206055 C-10.22623462 86.66990858 -16.06297786 85.09606252 -22.4375 81.375 C-23.42556641 80.85099609 -23.42556641 80.85099609 -24.43359375 80.31640625 C-32.48719092 75.41967568 -38.28419294 65.61031704 -41.5859375 57.0078125 C-44.12437609 46.17869373 -44.27991059 33.08010538 -39.17578125 23.015625 C-29.98833447 9.05896427 -16.93769782 -0.24606825 0 0 Z " fill="#FCFBFE" transform="translate(123.4375,80.625)"/>
<path d="M0 0 C0.8146875 0.00257812 1.629375 0.00515625 2.46875 0.0078125 C3.2834375 0.00523438 4.098125 0.00265625 4.9375 0 C6.96875 0.1328125 6.96875 0.1328125 7.96875 1.1328125 C8.05642112 3.20543326 8.07570873 5.28101544 8.06640625 7.35546875 C8.06318359 8.61552734 8.05996094 9.87558594 8.05664062 11.17382812 C8.04828403 12.51432359 8.03981907 13.85481838 8.03125 15.1953125 C8.0262366 16.53971192 8.02167342 17.8841131 8.01757812 19.22851562 C8.00574488 22.52999191 7.98925971 25.83138053 7.96875 29.1328125 C8.58911133 29.43622559 9.20947266 29.73963867 9.84863281 30.05224609 C11.96856099 31.13271617 13.79968074 32.35541573 15.71875 33.7578125 C16.63914063 34.42683594 16.63914063 34.42683594 17.578125 35.109375 C18.03703125 35.44710937 18.4959375 35.78484375 18.96875 36.1328125 C18.43805939 39.95378489 17.47173434 42.19452653 14.96875 45.1328125 C10.8500077 44.59431969 8.54922756 43.36845917 5.34375 40.7578125 C4.21066406 39.84902344 4.21066406 39.84902344 3.0546875 38.921875 C-1.8319493 34.7307146 -1.8319493 34.7307146 -3.03125 31.1328125 C-3.1267367 28.86094977 -3.16198537 26.58636756 -3.1640625 24.3125 C-3.16501923 23.65323517 -3.16597595 22.99397034 -3.16696167 22.31472778 C-3.16764105 20.92449854 -3.16580367 19.53426609 -3.16162109 18.14404297 C-3.15625228 16.00871736 -3.16158293 13.87360047 -3.16796875 11.73828125 C-3.16730826 10.38802037 -3.1660277 9.03775961 -3.1640625 7.6875 C-3.16293457 6.45499512 -3.16180664 5.22249023 -3.16064453 3.95263672 C-2.98823382 0.19538452 -2.98823382 0.19538452 0 0 Z " fill="#724DFB" transform="translate(121.03125,95.8671875)"/>
</svg>
